<?xml version="1.0" standalone="no"?>
<!DOCTYPE svg PUBLIC "-//W3C//DTD SVG 20010904//EN"
 "http://www.w3.org/TR/2001/REC-SVG-20010904/DTD/svg10.dtd">
<svg version="1.0" xmlns="http://www.w3.org/2000/svg"
 width="2001.000000pt" height="1134.000000pt" viewBox="0 0 2001.000000 1134.000000"
 preserveAspectRatio="xMidYMid meet">
<metadata>
Created by potrace 1.16, written by Peter Selinger 2001-2019
</metadata>
<g transform="translate(0.000000,1134.000000) scale(0.100000,-0.100000)"
fill="#000000" stroke="none">
<path d="M8250 11331 l-35 -7 45 -8 c194 -33 434 -116 639 -221 103 -52 138
-65 191 -70 709 -70 1506 -303 2230 -652 l145 -70 0 -149 c0 -126 3 -160 22
-219 31 -98 87 -187 164 -264 126 -126 255 -182 439 -189 139 -5 206 9 330 70
119 58 230 168 289 288 95 194 95 402 0 598 -53 111 -168 229 -276 285 -267
139 -599 85 -798 -131 l-31 -33 -194 95 c-794 386 -1649 617 -2500 676 -159
11 -604 11 -660 1z m3973 -766 c83 -21 133 -50 198 -111 182 -175 182 -453 0
-628 -85 -80 -168 -117 -279 -124 -75 -4 -97 -1 -159 21 -377 131 -409 631
-53 812 87 45 195 56 293 30z" fill="#000000"/>
<path d="M12069 10399 c-62 -9 -97 -29 -147 -82 -79 -87 -91 -210 -31 -315 92
-161 329 -172 442 -20 34 46 47 91 47 162 -1 167 -139 280 -311 255z" fill="#000000"/>
<path d="M7705 11209 c-347 -36 -657 -178 -917 -419 -323 -299 -488 -680 -505
-1165 -20 -553 159 -1088 577 -1724 98 -149 124 -181 223 -273 129 -120 257
-231 339 -294 l56 -44 624 0 623 0 113 225 c119 238 133 257 207 271 40 7 108
-20 138 -55 12 -15 49 -98 81 -185 32 -86 62 -154 66 -149 4 4 89 467 190
1028 100 561 189 1032 196 1046 68 136 260 104 292 -48 6 -26 99 -598 208
-1270 109 -673 201 -1223 204 -1223 3 0 56 424 119 943 124 1029 120 1008 191
1055 67 45 178 15 216 -59 11 -23 284 -1471 284 -1511 0 -4 339 -8 754 -8
l755 0 74 88 c147 173 363 484 494 712 230 399 371 797 414 1163 19 162 6 464
-25 614 -78 370 -246 673 -490 885 -212 184 -485 318 -772 379 -128 27 -384
37 -533 19 -130 -15 -332 -65 -466 -115 -114 -42 -335 -145 -335 -155 0 -3 75
-40 168 -82 92 -41 199 -90 238 -108 l70 -32 67 51 c79 59 185 112 277 138 49
13 101 18 205 17 132 0 146 -2 233 -32 225 -77 378 -213 477 -425 56 -118 70
-184 70 -337 -1 -126 -3 -141 -33 -230 -41 -120 -96 -212 -175 -297 -157 -168
-352 -252 -583 -253 -302 0 -579 177 -710 455 -53 112 -74 207 -74 328 l0 94
-122 58 c-183 86 -348 157 -503 215 l-140 52 -88 -92 c-160 -167 -369 -451
-443 -602 l-28 -57 -49 92 c-209 389 -573 765 -983 1015 -384 235 -848 345
-1269 301z" fill="#FF0D0D" />
<path d="M6685 10917 c-510 -300 -809 -686 -915 -1182 -27 -128 -38 -419 -21
-562 32 -257 109 -501 246 -778 600 -1214 2145 -2275 3896 -2675 858 -196
1737 -210 2423 -40 l119 29 60 -20 c49 -17 82 -20 171 -18 l111 3 87 -83 c290
-275 524 -403 913 -501 243 -61 294 -62 374 -2 37 28 29 27 336 16 383 -14
898 43 1270 141 456 119 721 262 827 445 61 105 76 249 43 409 -11 57 -18 140
-19 250 -2 137 -6 180 -25 245 -30 106 -73 199 -102 220 -34 23 -95 20 -185
-10 -186 -62 -207 -100 -149 -276 38 -115 94 -220 164 -306 52 -64 62 -83 78
-150 9 -42 17 -106 18 -142 0 -120 -72 -202 -260 -295 -288 -142 -765 -251
-1255 -285 -162 -11 -462 -12 -587 -2 -79 7 -84 9 -125 48 -57 55 -66 59 -204
89 -322 70 -577 193 -734 355 -138 142 -191 264 -198 452 -5 136 10 222 64
361 57 150 167 329 283 462 87 100 112 146 120 216 4 33 14 66 22 73 60 56
326 270 422 340 375 273 851 512 1200 603 139 36 302 39 362 6 58 -30 117 -99
154 -176 31 -65 32 -72 35 -215 3 -125 7 -160 30 -236 55 -182 92 -236 164
-236 43 0 202 51 249 80 45 27 60 81 44 158 -28 126 -114 289 -203 387 -33 36
-70 93 -99 154 -101 211 -219 310 -403 342 -356 61 -1120 -256 -1743 -722 -54
-41 -167 -131 -250 -201 -144 -121 -155 -128 -196 -128 -96 0 -174 -67 -341
-293 -212 -288 -314 -547 -366 -929 l-12 -88 -57 -35 c-69 -41 -151 -125 -181
-186 -12 -24 -24 -45 -25 -47 -1 -2 -74 -18 -162 -37 -881 -190 -1948 -83
-3006 301 -1737 631 -3033 1886 -3115 3018 -20 271 36 552 150 755 16 29 47
105 69 168 94 274 247 508 457 703 47 44 82 80 77 80 -6 0 -50 -24 -100 -53z" fill="#000000"/>
<path d="M9841 8448 c-4 -34 -303 -1682 -311 -1710 -14 -49 -61 -95 -112 -109
-51 -13 -115 8 -151 51 -14 16 -66 140 -116 277 -51 136 -96 252 -101 257 -5
5 -28 -30 -53 -80 -47 -94 -74 -126 -120 -143 -19 -7 -186 -11 -485 -11 -528
0 -496 12 -282 -111 262 -152 592 -312 888 -430 193 -78 605 -211 809 -263
201 -51 416 -97 422 -90 3 2 -80 527 -183 1167 -161 997 -202 1234 -205 1195z" fill="#FF0D0D"/>
<path d="M10836 7709 c-8 -37 -206 -1682 -203 -1685 7 -7 196 -24 377 -35 110
-6 258 -8 340 -4 l144 7 316 317 c267 268 647 678 658 711 2 7 -245 10 -690
10 l-694 0 -44 23 c-74 37 -80 53 -139 378 -29 162 -55 296 -57 298 -2 2 -5
-7 -8 -20z" fill="#FF0D0D"/>
<path d="M14610 7065 l0 -205 -205 0 -205 0 0 -210 0 -210 205 0 205 0 0 -205
0 -205 210 0 210 0 0 205 0 205 205 0 205 0 0 210 0 210 -205 0 -205 0 0 205
0 205 -210 0 -210 0 0 -205z" fill="#FF0D0D"/>
<path d="M8460 6062 c0 -9 247 -240 435 -407 402 -357 1064 -885 1110 -885 32
0 366 254 713 542 78 65 142 122 142 127 0 4 -44 11 -97 15 -359 25 -876 123
-1299 245 -286 83 -683 228 -918 335 -86 40 -86 39 -86 28z" fill="#FF0D0D"/>
<path d="M10053 3601 c-64 -24 -97 -46 -150 -104 -60 -65 -86 -142 -81 -243 7
-139 77 -242 206 -302 51 -24 69 -27 167 -27 98 0 116 3 166 26 79 37 133 90
171 167 30 61 33 75 33 162 0 84 -3 102 -28 152 -33 68 -90 121 -166 156 -77
36 -239 42 -318 13z" />
<path d="M8740 2853 l0 -626 -58 56 c-238 226 -613 314 -1012 237 -497 -95
-842 -438 -952 -943 -32 -147 -32 -455 0 -604 114 -529 483 -877 1017 -959
120 -19 383 -13 485 10 206 47 353 125 488 258 l62 61 0 -156 0 -157 280 0
280 0 0 1725 0 1725 -295 0 -295 0 0 -627z m-607 -818 c165 -18 347 -119 452
-253 57 -71 107 -172 137 -277 33 -116 33 -344 0 -460 -78 -273 -269 -460
-529 -519 -102 -23 -269 -21 -367 4 -235 60 -414 229 -498 470 -32 94 -33 97
-33 275 0 178 1 181 33 275 101 291 328 466 637 494 41 3 66 2 168 -9z"/>
<path d="M0 1660 l0 -1630 295 0 295 0 2 1050 3 1049 525 -864 525 -864 140 0
140 0 528 881 527 881 0 -294 c0 -162 3 -642 7 -1066 l6 -773 289 0 288 0 0
833 c0 459 -3 1192 -7 1630 l-6 797 -251 0 -251 -1 -629 -1069 c-345 -589
-630 -1070 -632 -1070 -1 0 -291 482 -644 1070 l-640 1070 -255 0 -255 0 0
-1630z"/>
<path d="M18590 2785 l0 -285 -205 0 -205 0 0 -235 0 -235 205 0 205 0 0 -644
c0 -402 4 -674 11 -723 6 -43 24 -118 40 -168 103 -311 354 -476 745 -492 164
-7 268 6 399 48 87 28 213 93 222 115 3 9 -149 410 -161 421 -2 2 -20 -7 -41
-21 -80 -55 -140 -70 -275 -71 -112 0 -130 2 -174 24 -90 44 -145 121 -166
230 -6 33 -10 294 -10 667 l0 614 330 0 330 0 0 235 0 235 -330 0 -330 0 0
285 0 285 -295 0 -295 0 0 -285z"/>
<path d="M5107 2539 c-562 -62 -983 -446 -1094 -997 -25 -121 -25 -413 0 -534
91 -451 382 -779 827 -929 172 -59 281 -74 530 -73 193 0 239 3 327 22 259 56
453 155 606 310 l68 69 -146 169 c-81 93 -153 175 -160 183 -12 12 -21 7 -64
-32 -155 -139 -334 -210 -561 -223 -267 -16 -512 67 -669 226 -79 79 -127 157
-163 265 l-27 80 972 5 972 5 3 157 c2 102 -3 192 -12 255 -72 479 -364 835
-804 983 -169 56 -413 80 -605 59z m352 -489 c163 -39 308 -138 396 -270 46
-69 96 -190 109 -262 l7 -38 -697 0 -696 0 7 38 c48 262 245 468 510 533 100
25 258 24 364 -1z"/>
<path d="M12310 2538 c-265 -27 -480 -123 -624 -279 l-66 -71 0 166 0 166
-285 0 -285 0 0 -1245 0 -1245 295 0 295 0 0 623 c0 764 5 820 92 997 53 109
160 220 258 267 122 59 208 77 368 77 l142 0 0 278 0 278 -52 -1 c-29 -1 -91
-6 -138 -11z"/>
<path d="M13775 2544 c-467 -47 -834 -286 -1027 -668 -169 -334 -181 -784 -30
-1133 133 -309 402 -550 737 -662 189 -63 277 -75 530 -75 249 0 345 13 515
71 166 56 380 192 463 295 l29 37 -157 180 c-86 100 -160 181 -164 181 -4 0
-20 -14 -37 -31 -83 -88 -242 -174 -391 -211 -73 -18 -115 -22 -248 -22 -189
1 -268 18 -410 88 -154 77 -246 168 -320 321 -24 50 -47 107 -51 128 l-6 37
970 0 969 0 7 103 c16 233 -38 517 -135 709 -74 147 -204 307 -329 403 -140
107 -318 186 -509 225 -96 19 -320 33 -406 24z m360 -508 c234 -80 410 -281
450 -514 l7 -42 -696 0 c-383 0 -696 3 -696 8 0 4 9 41 21 82 56 202 214 381
398 451 104 39 169 49 306 45 109 -3 143 -7 210 -30z"/>
<path d="M16766 2539 c-254 -27 -465 -117 -628 -267 l-58 -54 0 151 0 151
-280 0 -280 0 0 -1245 0 -1245 295 0 294 0 3 722 3 723 28 90 c92 295 295 448
612 462 297 13 491 -103 577 -344 44 -125 48 -195 48 -945 l0 -708 296 0 295
0 -4 818 c-3 786 -4 821 -25 912 -50 226 -118 363 -246 499 -211 221 -543 321
-930 280z"/>
<path d="M9900 1275 l0 -1245 295 0 295 0 0 1245 0 1245 -295 0 -295 0 0
-1245z" />
</g>
</svg>
